<svg width="124" height="48" viewBox="0 0 124 48" fill="none" xmlns="http://www.w3.org/2000/svg">
<g id="Capa_1" clip-path="url(#clip0_102_67)">
<g id="Group">
<path id="Vector" d="M6.0193 40.1721C6.63478 40.6924 6.94351 41.4078 6.94351 42.3183C6.94351 43.2288 6.63478 43.9422 6.0193 44.4585C5.40381 44.9749 4.55038 45.233 3.46492 45.233H1.17601V47.9271H0.275391V39.3917H3.46295C4.55038 39.3917 5.40184 39.6518 6.01733 40.1721H6.0193ZM5.37431 43.885C5.82069 43.5145 6.04289 42.9923 6.04289 42.3183C6.04289 41.6443 5.82069 41.0964 5.37431 40.7279C4.92793 40.3574 4.28295 40.1721 3.43936 40.1721H1.17601V44.4388H3.43936C4.28295 44.4388 4.92793 44.2536 5.37431 43.8831V43.885Z" fill="white"/>
<path id="Vector_2" d="M17.7825 47.9271L15.8357 45.1838C15.6174 45.2074 15.3893 45.2212 15.1553 45.2212H12.8684V47.9271H11.9678V39.3917H15.1553C16.2428 39.3917 17.0942 39.6518 17.7097 40.1721C18.3252 40.6924 18.6339 41.4078 18.6339 42.3183C18.6339 42.9844 18.4648 43.548 18.1286 44.0072C17.7923 44.4664 17.3105 44.7975 16.6872 45.0005L18.7676 47.9271H17.7825ZM17.0647 43.891C17.5111 43.5165 17.7333 42.9923 17.7333 42.3183C17.7333 41.6443 17.5111 41.0964 17.0647 40.7279C16.6184 40.3574 15.9734 40.1721 15.1298 40.1721H12.8664V44.4526H15.1298C15.9734 44.4526 16.6184 44.2654 17.0647 43.891Z" fill="white"/>
<path id="Vector_3" d="M25.2706 47.4324C24.5843 47.054 24.0495 46.5357 23.6641 45.8775C23.2786 45.2192 23.0859 44.4802 23.0859 43.6584C23.0859 42.8366 23.2786 42.0976 23.6641 41.4393C24.0495 40.7811 24.5843 40.2628 25.2706 39.8844C25.9569 39.506 26.7199 39.3168 27.5635 39.3168C28.4071 39.3168 29.1681 39.504 29.8445 39.8785C30.521 40.2529 31.0558 40.7712 31.4452 41.4334C31.8345 42.0956 32.0292 42.8386 32.0292 43.6584C32.0292 44.4782 31.8345 45.2212 31.4452 45.8834C31.0558 46.5456 30.5229 47.0639 29.8445 47.4383C29.1681 47.8128 28.4071 48 27.5635 48C26.7199 48 25.9549 47.8108 25.2706 47.4324ZM29.3883 46.7367C29.931 46.4313 30.3577 46.0095 30.6665 45.4695C30.9752 44.9295 31.1286 44.3265 31.1286 43.6584C31.1286 42.9903 30.9752 42.3892 30.6665 41.8473C30.3577 41.3073 29.933 40.8836 29.3883 40.5801C28.8456 40.2746 28.236 40.1228 27.5635 40.1228C26.891 40.1228 26.2794 40.2746 25.7327 40.5801C25.1861 40.8855 24.7554 41.3073 24.4428 41.8473C24.1301 42.3873 23.9748 42.9923 23.9748 43.6584C23.9748 44.3245 24.1301 44.9295 24.4428 45.4695C24.7554 46.0095 25.1841 46.4332 25.7327 46.7367C26.2814 47.0402 26.891 47.194 27.5635 47.194C28.236 47.194 28.8456 47.0422 29.3883 46.7367Z" fill="white"/>
<path id="Vector_4" d="M37.126 39.3917H40.5928C41.4934 39.3917 42.2878 39.573 42.978 39.9336C43.6682 40.2963 44.2031 40.7988 44.5846 41.4452C44.9661 42.0916 45.1568 42.8287 45.1568 43.6584C45.1568 44.4881 44.9661 45.2252 44.5846 45.8716C44.2031 46.518 43.6682 47.0225 42.978 47.3831C42.2878 47.7458 41.4934 47.9251 40.5928 47.9251H37.126V39.3897V39.3917ZM40.5456 47.1466C41.2908 47.1466 41.9437 46.9988 42.5041 46.7013C43.0646 46.4056 43.4972 45.9938 43.8059 45.4695C44.1146 44.9453 44.268 44.3422 44.268 43.6584C44.268 42.9745 44.1146 42.3715 43.8059 41.8473C43.4972 41.323 43.0646 40.9131 42.5041 40.6155C41.9437 40.3179 41.2908 40.1701 40.5456 40.1701H38.0266V47.1447H40.5456V47.1466Z" fill="white"/>
<path id="Vector_5" d="M51.1054 47.0481C50.4899 46.4135 50.1812 45.4912 50.1812 44.2812V39.3917H51.0818V44.2437C51.0818 45.235 51.304 45.976 51.7504 46.4628C52.1967 46.9496 52.8417 47.194 53.6853 47.194C54.5289 47.194 55.1857 46.9496 55.6321 46.4628C56.0784 45.9741 56.3006 45.235 56.3006 44.2437V39.3917H57.1757V44.2812C57.1757 45.4932 56.8689 46.4155 56.2574 47.0481C55.6458 47.6827 54.7865 48 53.6853 48C52.5841 48 51.7228 47.6827 51.1054 47.0481Z" fill="white"/>
<path id="Vector_6" d="M64.3845 47.4383C63.7081 47.0639 63.1752 46.5456 62.7918 45.8834C62.4063 45.2212 62.2136 44.4802 62.2136 43.6584C62.2136 42.8366 62.4063 42.0956 62.7918 41.4334C63.1772 40.7712 63.7101 40.2529 64.3924 39.8785C65.0728 39.504 65.8358 39.3168 66.6794 39.3168C67.3125 39.3168 67.8966 39.4232 68.4314 39.6341C68.9663 39.845 69.4205 40.1544 69.7942 40.5604L69.2219 41.1339C68.5573 40.4598 67.7176 40.1228 66.703 40.1228C66.0304 40.1228 65.4169 40.2766 64.8663 40.586C64.3157 40.8954 63.8831 41.3171 63.5704 41.8532C63.2578 42.3892 63.1024 42.9923 63.1024 43.6584C63.1024 44.3245 63.2578 44.9256 63.5704 45.4636C63.8831 45.9997 64.3138 46.4234 64.8663 46.7308C65.4169 47.0402 66.0304 47.194 66.703 47.194C67.7255 47.194 68.5651 46.853 69.2219 46.1692L69.7942 46.7427C69.4205 47.1486 68.9643 47.46 68.4255 47.6748C67.8867 47.8896 67.3007 47.998 66.6676 47.998C65.824 47.998 65.063 47.8108 64.3865 47.4364L64.3845 47.4383Z" fill="white"/>
<path id="Vector_7" d="M76.3364 40.1721H73.3435V39.3917H80.2299V40.1721H77.237V47.9271H76.3364V40.1721Z" fill="white"/>
<path id="Vector_8" d="M84.7429 39.3917H85.6435V47.9271H84.7429V39.3917Z" fill="white"/>
<path id="Vector_9" d="M92.9252 47.4324C92.2389 47.054 91.704 46.5357 91.3186 45.8775C90.9332 45.2192 90.7405 44.4802 90.7405 43.6584C90.7405 42.8366 90.9332 42.0976 91.3186 41.4393C91.704 40.7811 92.2389 40.2628 92.9252 39.8844C93.6114 39.506 94.3744 39.3168 95.218 39.3168C96.0616 39.3168 96.8226 39.504 97.4991 39.8785C98.1755 40.2529 98.7104 40.7712 99.0997 41.4334C99.4891 42.0956 99.6837 42.8386 99.6837 43.6584C99.6837 44.4782 99.4891 45.2212 99.0997 45.8834C98.7104 46.5456 98.1775 47.0639 97.4991 47.4383C96.8226 47.8128 96.0616 48 95.218 48C94.3744 48 93.6095 47.8108 92.9252 47.4324ZM97.0428 46.7367C97.5856 46.4313 98.0123 46.0095 98.321 45.4695C98.6297 44.9295 98.7831 44.3265 98.7831 43.6584C98.7831 42.9903 98.6297 42.3892 98.321 41.8473C98.0123 41.3073 97.5875 40.8836 97.0428 40.5801C96.5001 40.2746 95.8905 40.1228 95.218 40.1228C94.5455 40.1228 93.9339 40.2746 93.3873 40.5801C92.8406 40.8855 92.41 41.3073 92.0973 41.8473C91.7846 42.3873 91.6293 42.9923 91.6293 43.6584C91.6293 44.3245 91.7846 44.9295 92.0973 45.4695C92.41 46.0095 92.8386 46.4332 93.3873 46.7367C93.9359 47.0402 94.5455 47.194 95.218 47.194C95.8905 47.194 96.5001 47.0422 97.0428 46.7367Z" fill="white"/>
<path id="Vector_10" d="M111.897 39.3917V47.9271H111.156L105.681 41.0018V47.9271H104.781V39.3917H105.522L111.008 46.317V39.3917H111.897Z" fill="white"/>
<path id="Vector_11" d="M118.278 47.6945C117.698 47.4915 117.25 47.2235 116.933 46.8904L117.285 46.1948C117.594 46.5042 118.003 46.7545 118.514 46.9437C119.025 47.1348 119.552 47.2294 120.095 47.2294C120.858 47.2294 121.43 47.0895 121.81 46.8096C122.189 46.5298 122.382 46.1652 122.382 45.7178C122.382 45.3769 122.278 45.1049 122.071 44.9C121.865 44.697 121.611 44.5393 121.31 44.4309C121.009 44.3206 120.593 44.2003 120.058 44.0703C119.417 43.9087 118.905 43.751 118.526 43.6012C118.144 43.4515 117.818 43.2209 117.547 42.9115C117.275 42.6021 117.14 42.1843 117.14 41.6561C117.14 41.2245 117.254 40.8323 117.48 40.4795C117.706 40.1268 118.056 39.843 118.526 39.6321C118.996 39.4212 119.58 39.3148 120.278 39.3148C120.764 39.3148 121.242 39.3818 121.708 39.5158C122.174 39.6498 122.577 39.8351 122.919 40.0716L122.614 40.7909C122.256 40.5544 121.877 40.379 121.47 40.2608C121.063 40.1425 120.667 40.0834 120.278 40.0834C119.531 40.0834 118.97 40.2273 118.593 40.517C118.215 40.8047 118.026 41.1772 118.026 41.6324C118.026 41.9734 118.131 42.2473 118.337 42.4562C118.544 42.6651 118.803 42.8228 119.116 42.9312C119.428 43.0415 119.847 43.1618 120.374 43.2918C120.998 43.4455 121.503 43.5993 121.888 43.749C122.274 43.8988 122.6 44.1274 122.868 44.4309C123.135 44.7344 123.269 45.1483 123.269 45.6686C123.269 46.1002 123.153 46.4924 122.923 46.8451C122.693 47.1979 122.337 47.4797 121.859 47.6866C121.381 47.8936 120.793 47.998 120.095 47.998C119.462 47.998 118.856 47.8975 118.276 47.6925L118.278 47.6945Z" fill="white"/>
</g>
<g id="Group_2">
<g id="Group_3">
<g id="Group_4">
<path id="Vector_12" d="M0 0.752869H10.8566L16.4923 17.0728L22.1261 0.752869H32.8156L22.7829 25.7146C21.7348 28.3219 19.2119 30.0286 16.4078 30.0286C13.6037 30.0286 11.0808 28.3219 10.0327 25.7146L0 0.752869Z" fill="white"/>
<path id="Vector_13" d="M61.2834 0.752808H72.14L77.7758 17.0727L83.4096 0.752808H94.099L84.0664 25.7145C83.0183 28.3219 80.4953 30.0286 77.6912 30.0286C74.8871 30.0286 72.3642 28.3219 71.3161 25.7145L61.2834 0.752808Z" fill="white"/>
</g>
<g id="Group_5">
<path id="Vector_14" d="M52.8279 0.752825H49.542V23.3969C49.542 26.9443 52.411 29.8216 55.9525 29.8216H59.2384V7.17555C59.2384 3.62817 56.3694 0.750854 52.8279 0.750854V0.752825Z" fill="white"/>
<path id="Vector_15" d="M38.2134 0.752825H34.9275V23.3969C34.9275 26.9443 37.7965 29.8216 41.338 29.8216H44.6239V7.17555C44.6239 3.62817 41.7549 0.750854 38.2134 0.750854V0.752825Z" fill="white"/>
</g>
</g>
<g id="Group_6">
<path id="Vector_16" d="M106.865 8.76201C107.876 7.01789 108.885 5.27179 109.893 3.52569L109.852 3.50204C110.348 2.64672 110.843 1.78944 111.337 0.934128C111.584 0.506472 111.545 0.421729 111.048 0.317278C108.841 -0.143881 106.639 -0.0926412 104.45 0.403992C103.268 0.672016 102.161 1.15091 101.127 1.79338C100.891 1.94119 100.822 2.10082 100.903 2.37279C101.137 3.16109 101.353 3.95531 101.571 4.74953C102.071 6.56067 102.572 8.3718 103.072 10.1829C103.65 8.75019 105.382 8.00524 106.865 8.76201Z" fill="white"/>
<path id="Vector_17" d="M109.235 21.8814C107.811 24.3587 106.375 26.828 104.946 29.3013C104.958 29.3092 104.971 29.3151 104.983 29.323C104.922 29.4294 104.859 29.5359 104.798 29.6443C104.539 30.1054 104.574 30.2197 105.089 30.2828C106.051 30.3991 107.014 30.5469 107.978 30.5567C110.403 30.5823 112.705 30.0562 114.851 28.8855C115.181 28.7062 115.266 28.515 115.165 28.1603C114.697 26.5088 114.245 24.8533 113.789 23.1999C113.362 21.6528 112.933 20.1058 112.503 18.5607L110.45 19.7451C110.047 20.4585 109.644 21.1719 109.235 21.8814Z" fill="white"/>
<path id="Vector_18" d="M106.942 21.7671C105.697 22.4588 104.256 22.0647 103.461 21.0813C103.432 21.0892 103.404 21.097 103.375 21.1049C100.753 21.8144 98.1322 22.5199 95.509 23.2274C95.0961 23.3398 95.0253 23.46 95.2868 23.7852C96.0085 24.6779 96.6987 25.6101 97.5148 26.4102C99.1508 28.0203 101.098 29.1516 103.298 29.8256C103.536 29.8985 103.762 29.934 103.908 29.6699C104.558 28.4953 105.198 27.3109 105.862 26.1422C106.696 24.674 107.549 23.2176 108.395 21.7572C108.369 21.7434 108.344 21.7277 108.32 21.7139C108.535 21.3434 108.751 20.9729 108.965 20.6004L108.448 20.898L106.942 21.7671Z" fill="white"/>
<path id="Vector_19" d="M102.859 19.3509L102.863 17.4235C100.26 15.9257 97.6582 14.426 95.0547 12.9262C94.5552 12.6385 94.0597 12.3449 93.5582 12.0591C93.1748 11.8423 93.047 11.8975 92.9959 12.3429C92.8857 13.2948 92.7324 14.2486 92.7166 15.2044C92.6773 17.66 93.2122 19.9934 94.3507 22.1829C94.5415 22.5475 94.7814 22.6382 95.155 22.5121C95.5188 22.3899 95.8885 22.2854 96.2581 22.181C98.5117 21.5483 100.765 20.9177 103.019 20.2871C102.916 19.9993 102.861 19.686 102.861 19.3529L102.859 19.3509Z" fill="white"/>
<path id="Vector_20" d="M122.298 20.4368C122.549 19.7116 122.526 19.6702 121.833 19.28C119.678 18.0621 117.521 16.8422 115.364 15.6242C115.27 16.4421 114.817 17.2265 114.003 17.6955L113.171 18.1744C114.039 21.3907 114.906 24.609 115.775 27.8253C115.887 28.2411 115.989 28.2825 116.379 28.0164C119.165 26.1284 121.183 23.6354 122.296 20.4368H122.298Z" fill="white"/>
<path id="Vector_21" d="M100.014 2.3649C99.7761 2.46935 99.605 2.51665 99.4635 2.61124C97.263 4.07947 95.566 6.00688 94.3586 8.358C94.0106 9.03594 93.7786 9.77498 93.5013 10.4884C93.3951 10.7623 93.4364 10.985 93.7274 11.1447C94.8208 11.7418 95.9121 12.3488 96.9976 12.9617C98.9542 14.0634 100.907 15.169 102.861 16.2706L102.867 12.9459C101.914 9.4163 100.97 5.91228 100.012 2.36687L100.014 2.3649Z" fill="white"/>
<path id="Vector_22" d="M113.311 9.44784C115.704 8.79749 118.099 8.14516 120.492 7.49284C120.919 7.37656 120.947 7.28197 120.701 6.89964C119.841 5.56149 118.78 4.40268 117.553 3.40153C116.17 2.27622 114.646 1.4012 112.939 0.857266C112.572 0.740991 112.351 0.823763 112.169 1.16471C111.706 2.02199 111.219 2.86548 110.741 3.71488C109.709 5.54572 108.674 7.37459 107.642 9.20543L109.728 10.4175C110.924 10.0943 112.117 9.77104 113.313 9.44784H113.311Z" fill="white"/>
<path id="Vector_23" d="M114.013 12.9184C114.679 13.3066 115.102 13.9037 115.283 14.558C116.355 15.1808 117.427 15.8036 118.5 16.4263C118.508 16.4145 118.514 16.4027 118.522 16.3889C118.795 16.5485 119.069 16.7062 119.342 16.8658C120.268 17.4038 121.184 17.9596 122.122 18.472C122.783 18.8326 122.834 18.7774 122.946 18.1586C123.552 14.7945 123.121 11.5723 121.633 8.49004C121.471 8.15501 121.251 8.10574 120.933 8.19836C119.946 8.48609 118.958 8.77383 117.969 9.0517C115.584 9.71782 113.197 10.38 110.812 11.0481L112.552 12.0591L114.015 12.9184H114.013Z" fill="white"/>
</g>
</g>
</g>
<defs>
<clipPath id="clip0_102_67">
<rect width="123.273" height="48" fill="white"/>
</clipPath>
</defs>
</svg>
